# Blender v2.76 (sub 0) OBJ File: 'jewel2.blend'
# www.blender.org
mtllib jewel2.mtl
o Cube
v 0.722358 -1.092629 -1.010548
v 0.871349 -0.859403 0.966829
v -0.938714 -0.957827 0.779818
v -1.025991 -0.950918 -0.776755
v 0.834797 0.877581 -0.890394
v 0.669286 0.884841 0.806161
v -0.986066 0.804171 0.801520
v -1.019083 0.935298 -0.695148
v 1.000000 -1.000000 0.000000
v 0.000000 -1.000000 -1.000000
v 0.999891 -0.000006 -0.999763
v -0.000000 -0.861840 1.709641
v 0.665617 -0.231158 1.090647
v -1.000000 -1.000000 -0.000000
v -0.998195 0.000119 0.998190
v -0.999682 -0.001201 -0.998003
v 1.000000 1.000000 0.000001
v 0.000000 1.000000 -1.000000
v -0.001357 0.999886 0.998299
v -0.998599 1.000117 0.001650
v -0.014908 -0.077789 -4.100971
v -3.668801 0.019840 -0.052594
v -0.041589 -0.113277 3.777395
v 4.079999 -0.060385 -0.075334
v 0.395531 3.685448 0.018031
v 0.457518 -3.646744 -0.029990
v 0.943037 -0.943752 0.489639
v -0.512747 -0.972676 -0.916050
v 0.920805 0.447534 -0.933765
v -0.488247 -0.919633 1.308177
v 0.736236 0.353901 0.974868
v -1.010125 -0.982596 -0.399549
v -0.983729 0.417566 0.905376
v -1.003539 0.472929 -0.864238
v 0.869548 0.951958 0.430153
v -0.520660 0.971467 -0.888179
v -0.498361 0.916606 0.920047
v -0.993767 0.973763 -0.350573
v 0.912304 -1.018800 -0.515469
v 0.410344 -1.019855 -1.015078
v 0.861857 -0.545949 -1.005409
v 0.477459 -0.884274 1.333149
v 0.763865 -0.535577 1.024192
v -0.968982 -0.983811 0.395677
v -0.970800 -0.483190 0.899625
v -1.007164 -0.493797 -0.880918
v 0.937285 0.948458 -0.469549
v 0.424508 0.947741 -0.941806
v 0.335545 0.949096 0.887530
v -0.987846 0.917296 0.409503
v -0.507454 -0.038895 -2.550486
v 0.492546 -0.038895 -2.550485
v -0.007454 0.461105 -2.550486
v -0.007454 -0.538895 -2.550486
v -2.334400 0.009920 -0.526297
v -2.334401 0.009920 0.473703
v -2.334400 -0.490080 -0.026297
v -2.334401 0.509920 -0.026297
v -0.520795 -0.056639 2.388698
v 0.310757 -0.176924 2.438078
v -0.020795 -0.487558 2.743518
v -0.020795 0.443362 2.388698
v 2.371551 -0.150478 0.511714
v 2.539999 -0.030192 -0.537667
v 2.539999 -0.530192 -0.037667
v 2.539999 0.469808 -0.037667
v 0.197765 2.342724 0.509016
v 0.197766 2.342724 -0.490984
v 0.697765 2.342724 0.009016
v -0.302235 2.342724 0.009015
v -0.271241 -2.323372 -0.014995
v 0.728759 -2.323372 -0.014995
v 0.228759 -2.323372 -0.514995
v 0.228759 -2.254292 0.839826
v 0.609573 -1.622803 0.669329
v 0.632583 -1.637692 -0.527607
v -0.385620 -1.661686 -0.507498
v -0.401117 1.671362 -0.495492
v 0.598883 1.671362 -0.495492
v 0.598882 1.671362 0.504508
v 1.770000 0.484904 -0.518833
v 1.788203 -0.491102 -0.538943
v 1.685776 -0.575239 0.505857
v 0.405378 0.411538 1.719039
v 0.405378 -0.553922 1.896450
v -0.510397 -0.493779 1.871759
v -1.664141 0.505161 0.483783
v -1.667200 -0.495040 0.486850
v -1.666643 -0.497146 -0.509646
v 0.514476 -0.495453 -1.795352
v 0.496273 0.480553 -1.775243
v -0.503727 0.480553 -1.775243
v -0.503727 -0.519447 -1.775243
v -1.660265 0.505552 -0.503450
v -0.510398 0.471681 1.694349
v 1.685775 0.424761 0.505857
v -0.401118 1.671362 0.504508
v -0.385621 -1.627146 0.669913
vn -0.673700 -0.622200 0.398700
vn -0.584400 0.586300 0.561000
vn 0.454300 0.542400 0.706700
vn -0.610900 0.578200 0.540800
vn -0.568500 0.594400 -0.568800
vn -0.596500 -0.574700 -0.560300
vn -0.875500 0.326100 -0.356600
vn 0.672400 0.672400 -0.309200
vn 0.307800 -0.880800 -0.359700
vn -0.365000 -0.356200 -0.860200
vn -0.349000 -0.662600 0.662600
vn -0.374900 0.854500 0.359700
vn -0.897600 -0.269900 0.348600
vn 0.786600 -0.533000 0.311800
vn 0.474700 0.793800 0.380100
vn 0.362000 -0.376300 0.852900
vn 0.266000 -0.681600 -0.681600
vn 0.352300 0.871200 -0.342000
vn 0.406700 0.276700 0.870600
vn 0.685700 0.244100 -0.685700
vn -0.812600 0.492400 -0.311800
vn -0.801700 -0.524200 -0.287100
vn 0.688100 -0.230400 -0.688100
vn 0.668700 -0.356400 0.652500
vn 0.830200 -0.236800 0.504700
vn 0.919500 -0.252900 0.301000
vn 0.771500 -0.442700 0.457000
vn 0.278800 -0.377600 -0.883000
vn 0.566700 -0.596700 -0.568100
vn 0.910200 -0.253600 -0.327300
vn -0.527000 -0.671900 -0.520400
vn -0.331700 -0.431200 -0.839100
vn -0.639800 -0.425700 -0.639800
vn -0.642400 0.417900 -0.642400
vn -0.345000 0.423400 -0.837700
vn -0.582400 0.628700 -0.515200
vn 0.894700 0.274600 -0.352200
vn 0.588800 0.493500 -0.640100
vn 0.354000 0.339200 -0.871600
vn 0.613000 0.330200 0.717800
vn 0.887500 0.230400 0.399000
vn 0.687200 0.235400 0.687200
vn 0.289700 0.676800 -0.676800
vn 0.320500 0.359900 -0.876200
vn 0.499300 0.580000 -0.643600
vn 0.355900 -0.881100 -0.311400
vn 0.578100 -0.556600 -0.596700
vn 0.339400 -0.293800 -0.893600
vn 0.546600 -0.567000 0.616200
vn 0.331200 -0.894000 0.301800
vn 0.304900 -0.737200 0.603000
vn 0.831200 0.468200 0.299900
vn 0.948200 0.084400 0.306300
vn 0.693900 0.537500 0.479200
vn 0.439900 -0.811900 0.383800
vn 0.832700 -0.243300 0.497400
vn 0.952000 -0.003600 0.306000
vn -0.776300 -0.410100 0.478800
vn -0.454300 -0.801400 0.389200
vn -0.736200 -0.605600 0.302000
vn -0.339000 0.665200 0.665200
vn -0.381300 0.363100 0.850100
vn -0.541000 0.590100 0.599200
vn -0.408700 -0.853000 0.324600
vn -0.591900 -0.572900 0.567000
vn -0.392100 -0.349100 0.851100
vn -0.621500 -0.547800 -0.560100
vn -0.407400 -0.857800 -0.313500
vn -0.325300 -0.668600 -0.668600
vn 0.679000 -0.679000 -0.278900
vn 0.881500 -0.344000 -0.323600
vn 0.595500 -0.555500 -0.580400
vn 0.350400 0.866300 -0.356100
vn 0.616200 0.603200 -0.506400
vn 0.868100 0.362600 -0.339000
vn -0.618800 0.573600 -0.536700
vn -0.329300 0.869300 -0.368600
vn -0.673800 0.673800 -0.303400
vn -0.881100 -0.317800 -0.350300
vn -0.680400 -0.680400 -0.272200
vn -0.326600 -0.883600 -0.335500
vn -0.349600 0.380000 -0.856400
vn -0.313100 0.671500 -0.671500
vn -0.380200 0.859000 -0.343000
vn -0.863000 0.336400 0.376900
vn -0.665800 0.665800 0.336800
vn -0.351900 0.851500 0.388800
vn 0.339400 0.274300 0.899800
vn 0.301300 0.585000 0.752900
vn 0.361000 0.820400 0.443500
vn -0.347600 0.412400 0.842100
vn -0.644700 0.410700 0.644700
vn -0.814100 0.482400 0.323300
vn -0.816600 -0.508900 0.272500
vn -0.742800 -0.474000 0.472800
vn -0.589600 -0.530500 0.609100
usemtl Material
s off
f 98//1 30//1 3//1 44//1
f 97//2 50//2 7//2 37//2
f 96//3 35//3 6//3 31//3
f 95//4 37//4 7//4 33//4
f 94//5 38//5 8//5 34//5
f 93//6 28//6 4//6 46//6
f 92//7 51//7 16//7 34//7
f 91//8 52//8 21//8 53//8
f 90//9 40//9 10//9 54//9
f 89//10 55//10 16//10 46//10
f 88//11 56//11 22//11 57//11
f 87//12 50//12 20//12 58//12
f 86//13 59//13 15//13 45//13
f 85//14 60//14 23//14 61//14
f 84//15 49//15 19//15 62//15
f 83//16 63//16 13//16 43//16
f 82//17 64//17 24//17 65//17
f 81//18 47//18 17//18 66//18
f 80//19 67//19 19//19 49//19
f 79//20 68//20 25//20 69//20
f 78//21 38//21 20//21 70//21
f 77//22 71//22 14//22 32//22
f 76//23 72//23 26//23 73//23
f 75//24 42//24 12//24 74//24
f 72//25 75//25 74//25 26//25
f 9//26 27//26 75//26 72//26
f 27//27 2//27 42//27 75//27
f 40//28 76//28 73//28 10//28
f 1//29 39//29 76//29 40//29
f 39//30 9//30 72//30 76//30
f 28//31 77//31 32//31 4//31
f 10//32 73//32 77//32 28//32
f 73//33 26//33 71//33 77//33
f 68//34 78//34 70//34 25//34
f 18//35 36//35 78//35 68//35
f 36//36 8//36 38//36 78//36
f 47//37 79//37 69//37 17//37
f 5//38 48//38 79//38 47//38
f 48//39 18//39 68//39 79//39
f 35//40 80//40 49//40 6//40
f 17//41 69//41 80//41 35//41
f 69//42 25//42 67//42 80//42
f 64//43 81//43 66//43 24//43
f 11//44 29//44 81//44 64//44
f 29//45 5//45 47//45 81//45
f 39//46 82//46 65//46 9//46
f 1//47 41//47 82//47 39//47
f 41//48 11//48 64//48 82//48
f 27//49 83//49 43//49 2//49
f 9//50 65//50 83//50 27//50
f 65//51 24//51 63//51 83//51
f 60//52 84//52 62//52 23//52
f 13//53 31//53 84//53 60//53
f 31//54 6//54 49//54 84//54
f 42//55 85//55 61//55 12//55
f 2//56 43//56 85//56 42//56
f 43//57 13//57 60//57 85//57
f 30//58 86//58 45//58 3//58
f 12//59 61//59 86//59 30//59
f 61//60 23//60 59//60 86//60
f 56//61 87//61 58//61 22//61
f 15//62 33//62 87//62 56//62
f 33//63 7//63 50//63 87//63
f 44//64 88//64 57//64 14//64
f 3//65 45//65 88//65 44//65
f 45//66 15//66 56//66 88//66
f 32//67 89//67 46//67 4//67
f 14//68 57//68 89//68 32//68
f 57//69 22//69 55//69 89//69
f 52//70 90//70 54//70 21//70
f 11//71 41//71 90//71 52//71
f 41//72 1//72 40//72 90//72
f 48//73 91//73 53//73 18//73
f 5//74 29//74 91//74 48//74
f 29//75 11//75 52//75 91//75
f 36//76 92//76 34//76 8//76
f 18//77 53//77 92//77 36//77
f 53//78 21//78 51//78 92//78
f 51//79 93//79 46//79 16//79
f 21//80 54//80 93//80 51//80
f 54//81 10//81 28//81 93//81
f 55//82 94//82 34//82 16//82
f 22//83 58//83 94//83 55//83
f 58//84 20//84 38//84 94//84
f 59//85 95//85 33//85 15//85
f 23//86 62//86 95//86 59//86
f 62//87 19//87 37//87 95//87
f 63//88 96//88 31//88 13//88
f 24//89 66//89 96//89 63//89
f 66//90 17//90 35//90 96//90
f 67//91 97//91 37//91 19//91
f 25//92 70//92 97//92 67//92
f 70//93 20//93 50//93 97//93
f 71//94 98//94 44//94 14//94
f 26//95 74//95 98//95 71//95
f 74//96 12//96 30//96 98//96
